<?xml version="1.0" standalone="no"?>
<!DOCTYPE svg PUBLIC "-//W3C//DTD SVG 20010904//EN"
 "http://www.w3.org/TR/2001/REC-SVG-20010904/DTD/svg10.dtd">
<svg version="1.0" xmlns="http://www.w3.org/2000/svg"
 width="444.000000pt" height="444.000000pt" viewBox="0 0 444.000000 444.000000"
 preserveAspectRatio="xMidYMid meet">
<metadata>
Created by potrace 1.11, written by Peter Selinger 2001-2013
</metadata>
<g transform="translate(0.000000,444.000000) scale(0.100000,-0.100000)"
fill="#000000" stroke="none">
<path d="M1963 4424 c-280 -35 -493 -98 -733 -218 -647 -323 -1099 -944 -1205
-1656 -18 -120 -22 -196 -20 -370 2 -107 6 -206 9 -220 2 -14 7 -42 10 -62 3
-21 9 -55 12 -75 3 -21 10 -56 16 -78 5 -22 11 -47 13 -55 16 -83 42 -161 97
-300 196 -493 585 -915 1063 -1153 148 -74 361 -154 452 -171 15 -2 60 -12 98
-20 39 -8 95 -18 125 -22 30 -3 59 -9 64 -12 5 -3 98 -6 205 -8 177 -2 284 5
446 31 169 27 456 125 630 215 406 211 754 566 961 980 94 188 172 425 199
600 4 25 9 54 11 65 25 124 24 583 -1 657 -2 7 -6 30 -9 50 -48 326 -215 702
-444 992 -338 431 -851 733 -1382 816 -41 6 -86 14 -100 16 -60 12 -421 10
-517 -2z m481 -118 c17 -3 54 -8 81 -12 54 -6 211 -39 260 -54 361 -110 646
-275 898 -519 314 -305 542 -740 606 -1161 36 -234 34 -487 -4 -715 -4 -22 -9
-43 -11 -46 -2 -3 -6 -21 -9 -40 -21 -126 -110 -367 -197 -529 -325 -612 -955
-1032 -1648 -1097 -130 -12 -483 -4 -510 12 -3 1 -27 6 -54 9 -27 4 -52 9 -55
11 -3 1 -22 6 -41 9 -119 19 -382 117 -540 203 -445 239 -826 686 -976 1143
-8 25 -19 54 -24 65 -18 42 -59 225 -74 327 -28 190 -26 503 4 643 5 22 11 56
14 75 12 79 60 242 102 350 198 499 558 890 1038 1124 232 114 463 178 736
205 75 8 357 6 404 -3z"/>
<path d="M2169 2656 c-2 -2 -21 -6 -42 -9 -21 -3 -66 -19 -100 -35 -107 -53
-191 -152 -226 -267 -72 -237 60 -482 298 -555 292 -91 593 151 567 455 -9
107 -29 162 -90 240 -66 84 -140 133 -241 160 -54 14 -156 21 -166 11z"/>
</g>
</svg>
